<?xml version="1.0" encoding="utf-8"?>
<!-- Uploaded to: SVG Repo, www.svgrepo.com, Generator: SVG Repo Mixer Tools -->
<svg width="800px" height="800px" viewBox="0 0 1024 1024" fill="#000000" class="icon"  version="1.1" xmlns="http://www.w3.org/2000/svg"><path d="M264.032 951.942a7.992 7.992 0 0 1-7.998-7.996V80.056c0-4.42 3.578-8 7.998-8 4.422 0 8 3.578 8 8v863.888a7.992 7.992 0 0 1-8 7.998zM887.952 56.06H296.028c-4.42 0-7.998-3.578-7.998-8s3.578-8 7.998-8h591.924c4.42 0 7.998 3.578 7.998 8s-3.578 8-7.998 8zM967.942 983.938c-4.422 0-8-3.574-8-7.996V384.016c0-2.124 0.844-4.156 2.344-5.654l45.65-45.65V120.052h-39.994c-4.422 0-8-3.578-8-8V48.06c0-4.42 3.578-8 8-8a7.994 7.994 0 0 1 7.998 8v55.994h39.994c4.422 0 8 3.578 8 7.998v223.972a7.996 7.996 0 0 1-2.344 5.656l-45.65 45.65v588.612a7.992 7.992 0 0 1-7.998 7.996z" fill="" /><path d="M967.942 983.938H296.028c-4.42 0-7.998-3.574-7.998-7.996s3.578-8 7.998-8h671.914c4.42 0 7.998 3.578 7.998 8s-3.578 7.996-7.998 7.996zM935.946 919.95H296.028c-4.42 0-7.998-3.578-7.998-8s3.578-8 7.998-8h639.918c4.42 0 7.998 3.578 7.998 8s-3.578 8-7.998 8zM903.95 951.942H328.024c-4.422 0-8-3.574-8-7.996s3.578-8 8-8h575.926c4.422 0 7.998 3.578 7.998 8s-3.576 7.996-7.998 7.996z" fill="" /><path d="M296.028 983.938c-22.052 0-39.994-17.934-39.994-39.992 0-22.062 17.942-39.996 39.994-39.996 4.422 0 8 3.578 8 8s-3.578 8-8 8c-13.232 0-23.996 10.762-23.996 23.996 0 13.23 10.764 23.996 23.996 23.996 4.422 0 8 3.578 8 8s-3.578 7.996-8 7.996zM264.032 88.056a7.994 7.994 0 0 1-7.998-8c0-22.052 17.942-39.996 39.994-39.996 4.422 0 8 3.578 8 8s-3.578 8-8 8c-13.232 0-23.996 10.764-23.996 23.998a7.994 7.994 0 0 1-8 7.998zM983.938 312.026a7.994 7.994 0 0 1-7.998-8v-143.98a7.994 7.994 0 0 1 7.998-7.998c4.422 0 8 3.578 8 7.998v143.982a7.994 7.994 0 0 1-8 7.998zM935.946 919.95c-4.422 0-8-3.578-8-8v-524.62l-45.65-45.65a7.996 7.996 0 0 1-2.344-5.656V48.06c0-4.42 3.578-8 8-8a7.994 7.994 0 0 1 7.998 8v284.652l45.65 45.65a7.99 7.99 0 0 1 2.344 5.654v527.932a7.996 7.996 0 0 1-7.998 8.002zM967.942 56.06h-47.994c-4.422 0-8-3.578-8-8s3.578-8 8-8h47.994c4.42 0 7.998 3.578 7.998 8s-3.578 8-7.998 8zM232.036 903.95H8.064a7.994 7.994 0 0 1-7.998-8V211.056a8 8 0 0 1 1.664-4.882l63.984-83.004a7.98 7.98 0 0 1 6.334-3.116h159.986c4.422 0 8 3.578 8 7.998 0 4.422-3.578 8-8 8H75.986L16.064 213.782v674.172h215.97c4.422 0 8 3.574 8 7.996s-3.576 8-7.998 8z" fill="" /><path d="M88.054 216.04c-4.422 0-8-3.578-8-8V160.046a7.994 7.994 0 0 1 8-7.998 7.994 7.994 0 0 1 7.998 7.998v47.994c0 4.422-3.576 8-7.998 8z" fill="" /><path d="M88.054 216.04H40.06c-4.42 0-7.998-3.578-7.998-8s3.578-8 7.998-8h47.994c4.42 0 7.998 3.578 7.998 8s-3.576 8-7.998 8zM232.036 408.014H104.052c-4.422 0-8-3.578-8-8a7.994 7.994 0 0 1 8-7.998h127.982c4.422 0 8 3.578 8 7.998a7.992 7.992 0 0 1-7.998 8zM232.036 472.006H104.052c-4.422 0-8-3.578-8-8s3.578-8 8-8h127.982c4.422 0 8 3.578 8 8s-3.576 8-7.998 8zM232.036 535.996H104.052c-4.422 0-8-3.578-8-7.996 0-4.422 3.578-8 8-8h127.982c4.422 0 8 3.578 8 8a7.992 7.992 0 0 1-7.998 7.996zM232.036 599.988H104.052c-4.422 0-8-3.578-8-8a7.994 7.994 0 0 1 8-7.996h127.982c4.422 0 8 3.578 8 7.996a7.992 7.992 0 0 1-7.998 8zM232.036 663.98H104.052c-4.422 0-8-3.578-8-8s3.578-7.996 8-7.996h127.982c4.422 0 8 3.574 8 7.996s-3.576 8-7.998 8zM839.958 567.992H360.02c-4.422 0-8-3.578-8-8v-63.99c0-4.422 3.578-8 8-8h479.938c4.422 0 8 3.578 8 8v63.99c0 4.422-3.58 8-8 8z m-471.94-15.996h463.94V504h-463.94v47.996z" fill="" /><path d="M807.96 535.996H392.016c-4.422 0-8-3.578-8-7.996 0-4.422 3.578-8 8-8H807.96c4.422 0 8 3.578 8 8a7.994 7.994 0 0 1-8 7.996z" fill="" /></svg>